name C:\Users\u0150099\Documents\master_thesis\3dpredictsim\Results\debug\Fal_s1_mtjc2_sc_cspx10_oy2_ATx70_Fpsl10_MTc4_MTPm_k1_d01_tau_MTJm_nl_MG_exp5_table_d01_PF_Natali2010_ls146_FDB2_lTs125_Fpsl10_ig21_wAk5e+04_wa2e+03_wpMnD1e+03_new_bounds.mot
datacolumns 130
datarows 4
range 0.30000000 0.30600000
endheader
time	pelvis_tilt	pelvis_list	pelvis_rotation	pelvis_tx	pelvis_ty	pelvis_tz	hip_flexion_l	hip_adduction_l	hip_rotation_l	hip_flexion_r	hip_adduction_r	hip_rotation_r	knee_angle_l	knee_angle_r	ankle_angle_l	ankle_angle_r	subtalar_angle_l	subtalar_angle_r	mtj_angle_l	mtj_angle_r	mtp_angle_l	mtp_angle_r	lumbar_extension	lumbar_bending	lumbar_rotation	arm_flex_l	arm_add_l	arm_rot_l	arm_flex_r	arm_add_r	arm_rot_r	elbow_flex_l	elbow_flex_r	pro_sup_l	pro_sup_r	glut_med1_l/activation	glut_med2_l/activation	glut_med3_l/activation	glut_min1_l/activation	glut_min2_l/activation	glut_min3_l/activation	semimem_l/activation	semiten_l/activation	bifemlh_l/activation	bifemsh_l/activation	sar_l/activation	add_long_l/activation	add_brev_l/activation	add_mag1_l/activation	add_mag2_l/activation	add_mag3_l/activation	tfl_l/activation	pect_l/activation	grac_l/activation	glut_max1_l/activation	glut_max2_l/activation	glut_max3_l/activation	iliacus_l/activation	psoas_l/activation	quad_fem_l/activation	gem_l/activation	peri_l/activation	rect_fem_l/activation	vas_med_l/activation	vas_int_l/activation	vas_lat_l/activation	med_gas_l/activation	lat_gas_l/activation	soleus_l/activation	tib_post_l/activation	flex_dig_l/activation	flex_hal_l/activation	tib_ant_l/activation	per_brev_l/activation	per_long_l/activation	per_tert_l/activation	ext_dig_l/activation	ext_hal_l/activation	FDB_l/activation	ercspn_l/activation	intobl_l/activation	extobl_l/activation	glut_med1_r/activation	glut_med2_r/activation	glut_med3_r/activation	glut_min1_r/activation	glut_min2_r/activation	glut_min3_r/activation	semimem_r/activation	semiten_r/activation	bifemlh_r/activation	bifemsh_r/activation	sar_r/activation	add_long_r/activation	add_brev_r/activation	add_mag1_r/activation	add_mag2_r/activation	add_mag3_r/activation	tfl_r/activation	pect_r/activation	grac_r/activation	glut_max1_r/activation	glut_max2_r/activation	glut_max3_r/activation	iliacus_r/activation	psoas_r/activation	quad_fem_r/activation	gem_r/activation	peri_r/activation	rect_fem_r/activation	vas_med_r/activation	vas_int_r/activation	vas_lat_r/activation	med_gas_r/activation	lat_gas_r/activation	soleus_r/activation	tib_post_r/activation	flex_dig_r/activation	flex_hal_r/activation	tib_ant_r/activation	per_brev_r/activation	per_long_r/activation	per_tert_r/activation	ext_dig_r/activation	ext_hal_r/activation	FDB_r/activation	ercspn_r/activation	intobl_r/activation	extobl_r/activation	
          0.30000000	         -6.66025407	         -0.49487351	         -1.13523815	          0.39899996	          0.87984628	         -0.00000563	         16.99896961	        -12.37653221	          6.50915567	         21.14749868	        -10.78314628	          8.23620309	        -32.24880127	        -37.57913316	         11.27649704	         12.42700117	        -13.69782753	        -12.84278887	          5.24471721	          1.64222156	         -1.40307789	         -1.15537988	         -5.06931794	          0.63865069	          1.69963695	         10.15204194	        -27.15415430	         -8.86996695	          9.19352775	        -27.95563054	         -9.70625636	         51.68727594	         49.58563939	         86.51662706	         86.51662706	          0.60334482	          0.54396494	          0.49416519	          0.62154958	          0.61130325	          0.58692242	          0.57442231	          0.61249121	          0.49987376	          0.80025874	          0.68220607	          0.68487679	          0.59865789	          0.55583979	          0.53221963	          0.43051112	          0.67029647	          0.62947333	          0.64874532	          0.55623904	          0.45022767	          0.37576062	          0.81535879	          0.81210573	          0.54164908	          0.58757488	          0.55865171	          0.43777817	          0.27580475	          0.25899036	          0.21641930	          0.41169779	          0.49071258	          0.20037201	          0.38780290	          0.48718736	          0.50227990	          0.50759042	          0.58440783	          0.56052791	          0.58154038	          0.70746048	          0.70079823	          0.48131197	          0.67114176	          0.63257399	          0.55483017	          0.62632109	          0.59096585	          0.53339834	          0.62608976	          0.61751081	          0.60708732	          0.55824176	          0.54846399	          0.55925254	          0.62797578	          0.64124632	          0.63207735	          0.60789961	          0.58349180	          0.57769338	          0.56004961	          0.61339263	          0.61736829	          0.59357705	          0.56133458	          0.49306765	          0.47567035	          0.67570622	          0.66013527	          0.52698224	          0.58748252	          0.56675371	          0.60560055	          0.53028033	          0.52226432	          0.49338052	          0.32487082	          0.40596783	          0.16824702	          0.34452996	          0.51359728	          0.51685063	          0.73121377	          0.61663381	          0.61128692	          0.68651986	          0.72777386	          0.65980855	          0.54908722	          0.65814001	          0.51989102	          0.54543698	
          0.30200000	         -6.67337686	         -0.43694014	         -1.20389749	          0.40507882	          0.87984658	         -0.00000579	         17.09246101	        -12.32417692	          6.49366491	         20.99401599	        -10.82246621	          8.24966004	        -32.45379117	        -37.22625577	         11.29695592	         12.38326416	        -13.66979485	        -12.99634686	          5.12101818	          1.76185593	         -1.29341711	         -1.17967900	         -5.05552678	          0.62971751	          1.73034207	         10.11552460	        -27.14783118	         -8.86947423	          9.30421906	        -27.99021374	         -9.73927636	         51.68325687	         49.67201367	         86.51662706	         86.51662706	          0.59903504	          0.53810315	          0.48970295	          0.62274364	          0.60936372	          0.58468213	          0.57192087	          0.60997397	          0.49432542	          0.80697966	          0.68613302	          0.68636671	          0.59678560	          0.55475941	          0.52981688	          0.42488210	          0.67146987	          0.63058732	          0.64884139	          0.55275011	          0.44409414	          0.36956988	          0.82096569	          0.81825148	          0.54112849	          0.58610497	          0.55720861	          0.43910828	          0.26854396	          0.25207424	          0.21038350	          0.39925515	          0.47978151	          0.19396849	          0.38051492	          0.48720680	          0.50064719	          0.50787076	          0.58019216	          0.55634299	          0.57670399	          0.71835228	          0.70735517	          0.48905691	          0.67799989	          0.64567183	          0.56831804	          0.63455434	          0.60071192	          0.53677414	          0.62736460	          0.61952731	          0.61164752	          0.57349104	          0.56784558	          0.58311340	          0.62785458	          0.63779056	          0.62661523	          0.60615341	          0.58439667	          0.58114429	          0.57311617	          0.61091293	          0.61500194	          0.59266646	          0.56326657	          0.50012499	          0.49412397	          0.66593413	          0.65017732	          0.52158785	          0.58529434	          0.56512484	          0.59143603	          0.52679781	          0.51842549	          0.48771215	          0.33863092	          0.41521025	          0.17709395	          0.34905558	          0.51350839	          0.51799009	          0.73253322	          0.61717082	          0.61491467	          0.68276667	          0.72084507	          0.64986791	          0.54606632	          0.64557982	          0.51491269	          0.54265413	
          0.30400000	         -6.68238496	         -0.37688734	         -1.26625315	          0.40934791	          0.87984674	         -0.00000593	         17.19014320	        -12.26950836	          6.48285648	         20.82389517	        -10.86577442	          8.26198957	        -32.67043747	        -36.85995256	         11.32178559	         12.34288463	        -13.63272737	        -13.14814420	          4.98857411	          1.89271083	         -1.17384539	         -1.21858827	         -5.04631186	          0.61738925	          1.75373441	         10.08342071	        -27.14004655	         -8.86589328	          9.41846637	        -28.01960613	         -9.76422142	         51.67575426	         49.76052869	         86.51662706	         86.51662706	          0.59552821	          0.53370678	          0.48569365	          0.62242182	          0.60741049	          0.58249013	          0.56856956	          0.60628286	          0.48751772	          0.80955408	          0.68501468	          0.69023605	          0.59853424	          0.55580984	          0.52811311	          0.41954696	          0.67228091	          0.63431395	          0.64913881	          0.55064325	          0.44001948	          0.36430897	          0.82710472	          0.82148943	          0.53957142	          0.58449937	          0.55565224	          0.44521369	          0.26378330	          0.24731524	          0.20569313	          0.38794925	          0.47282920	          0.18783156	          0.37274458	          0.48630093	          0.49835943	          0.51416436	          0.57716818	          0.55125023	          0.57421358	          0.72385577	          0.70989621	          0.48546049	          0.68459776	          0.64951459	          0.57883898	          0.63754122	          0.60690408	          0.54205510	          0.62890522	          0.62464483	          0.61274281	          0.58622744	          0.58342101	          0.60274266	          0.62425373	          0.62981318	          0.61949723	          0.60305735	          0.58413416	          0.58316747	          0.58255991	          0.61072249	          0.61066854	          0.59107930	          0.56539386	          0.50990374	          0.50839167	          0.65486488	          0.64014616	          0.51821264	          0.58344841	          0.56339208	          0.57852489	          0.52464040	          0.51584693	          0.48338846	          0.35282366	          0.42483892	          0.18276259	          0.35279464	          0.51242771	          0.51840018	          0.71925130	          0.62142942	          0.61914047	          0.67580625	          0.71591707	          0.65023789	          0.54313763	          0.63428940	          0.50766709	          0.53432770	
          0.30600000	         -6.68685818	         -0.31459220	         -1.32212764	          0.41285668	          0.87984681	         -0.00000604	         17.29157242	        -12.21219485	          6.47714057	         20.63785245	        -10.91335764	          8.27372110	        -32.89853152	        -36.48184725	         11.34820046	         12.30542242	        -13.58699873	        -13.29708324	          4.85115928	          2.03488038	         -1.04519394	         -1.27193772	         -5.04216409	          0.60132064	          1.76950773	         10.05491684	        -27.13124017	         -8.85965053	          9.53572987	        -28.04397388	         -9.78134914	         51.66468075	         49.85119861	         86.51662706	         86.51662706	          0.59209724	          0.52905615	          0.48165466	          0.62113781	          0.60566194	          0.58047104	          0.56595578	          0.60331688	          0.48218949	          0.81043106	          0.68753208	          0.69827831	          0.59817856	          0.55698630	          0.52695639	          0.41568580	          0.67250505	          0.63541289	          0.65024158	          0.54767000	          0.43569752	          0.36030670	          0.83044345	          0.82289307	          0.53769336	          0.58290728	          0.55425654	          0.45038219	          0.26025361	          0.24378747	          0.20195019	          0.37747503	          0.46796320	          0.18196595	          0.36477308	          0.48495411	          0.49565125	          0.52477508	          0.57487997	          0.54582125	          0.57364899	          0.72795110	          0.71042699	          0.47857119	          0.69304117	          0.65920690	          0.59304711	          0.64015735	          0.61308993	          0.54755993	          0.62914792	          0.62542973	          0.61255731	          0.59733144	          0.59799132	          0.61901631	          0.62679902	          0.62688084	          0.61149985	          0.59971880	          0.58440626	          0.58537385	          0.59109493	          0.61082477	          0.60753453	          0.58964486	          0.56731029	          0.52005588	          0.52092600	          0.64139041	          0.62750777	          0.51408282	          0.58098433	          0.56167910	          0.56530881	          0.52273134	          0.51353030	          0.47946310	          0.37069153	          0.43573552	          0.20607746	          0.35604026	          0.51092470	          0.51839979	          0.70779874	          0.62779420	          0.62350009	          0.66886022	          0.70872599	          0.64834089	          0.53552667	          0.62412398	          0.50551861	          0.53318219	
